<svg width="200" height="200" viewBox="0 0 200 200" fill="none" xmlns="http://www.w3.org/2000/svg">
<mask id="path-1-inside-1_1_9" fill="white">
<path d="M0 0H100V100H0V0Z"/>
</mask>
<path d="M100 100V100.5H100.5V100H100ZM0 100.5H1.92308V99.5H0V100.5ZM5.76923 100.5H9.61538V99.5H5.76923V100.5ZM13.4615 100.5H17.3077V99.5H13.4615V100.5ZM21.1538 100.5H25V99.5H21.1538V100.5ZM28.8462 100.5H32.6923V99.5H28.8462V100.5ZM36.5385 100.5H40.3846V99.5H36.5385V100.5ZM44.2308 100.5H48.0769V99.5H44.2308V100.5ZM51.9231 100.5H55.7692V99.5H51.9231V100.5ZM59.6154 100.5H63.4615V99.5H59.6154V100.5ZM67.3077 100.5H71.1538V99.5H67.3077V100.5ZM75 100.5H78.8461V99.5H75V100.5ZM82.6923 100.5H86.5385V99.5H82.6923V100.5ZM90.3846 100.5H94.2308V99.5H90.3846V100.5ZM98.0769 100.5H100V99.5H98.0769V100.5ZM100.5 100V98.0769H99.5V100H100.5ZM100.5 94.2308V90.3846H99.5V94.2308H100.5ZM100.5 86.5385V82.6923H99.5V86.5385H100.5ZM100.5 78.8462V75H99.5V78.8462H100.5ZM100.5 71.1538V67.3077H99.5V71.1538H100.5ZM100.5 63.4615V59.6154H99.5V63.4615H100.5ZM100.5 55.7692V51.9231H99.5V55.7692H100.5ZM100.5 48.0769V44.2308H99.5V48.0769H100.5ZM100.5 40.3846V36.5385H99.5V40.3846H100.5ZM100.5 32.6923V28.8462H99.5V32.6923H100.5ZM100.5 25V21.1539H99.5V25H100.5ZM100.5 17.3077V13.4615H99.5V17.3077H100.5ZM100.5 9.6154V5.76924H99.5V9.6154H100.5ZM100.5 1.92309V0H99.5V1.92309H100.5ZM100 100V101H101V100H100ZM0 101H1.92308V99H0V101ZM5.76923 101H9.61538V99H5.76923V101ZM13.4615 101H17.3077V99H13.4615V101ZM21.1538 101H25V99H21.1538V101ZM28.8462 101H32.6923V99H28.8462V101ZM36.5385 101H40.3846V99H36.5385V101ZM44.2308 101H48.0769V99H44.2308V101ZM51.9231 101H55.7692V99H51.9231V101ZM59.6154 101H63.4615V99H59.6154V101ZM67.3077 101H71.1538V99H67.3077V101ZM75 101H78.8461V99H75V101ZM82.6923 101H86.5385V99H82.6923V101ZM90.3846 101H94.2308V99H90.3846V101ZM98.0769 101H100V99H98.0769V101ZM101 100V98.0769H99V100H101ZM101 94.2308V90.3846H99V94.2308H101ZM101 86.5385V82.6923H99V86.5385H101ZM101 78.8462V75H99V78.8462H101ZM101 71.1538V67.3077H99V71.1538H101ZM101 63.4615V59.6154H99V63.4615H101ZM101 55.7692V51.9231H99V55.7692H101ZM101 48.0769V44.2308H99V48.0769H101ZM101 40.3846V36.5385H99V40.3846H101ZM101 32.6923V28.8462H99V32.6923H101ZM101 25V21.1539H99V25H101ZM101 17.3077V13.4615H99V17.3077H101ZM101 9.6154V5.76924H99V9.6154H101ZM101 1.92309V0H99V1.92309H101Z" fill="black" fill-opacity="0.48" mask="url(#path-1-inside-1_1_9)"/>
<mask id="path-3-inside-2_1_9" fill="white">
<path d="M100 0H200V100H100V0Z"/>
</mask>
<path d="M100 100H99.5V100.5H100V100ZM99.5 0V1.92308H100.5V0H99.5ZM99.5 5.76923V9.61538H100.5V5.76923H99.5ZM99.5 13.4615V17.3077H100.5V13.4615H99.5ZM99.5 21.1538V25H100.5V21.1538H99.5ZM99.5 28.8462V32.6923H100.5V28.8462H99.5ZM99.5 36.5385V40.3846H100.5V36.5385H99.5ZM99.5 44.2308V48.0769H100.5V44.2308H99.5ZM99.5 51.9231V55.7692H100.5V51.9231H99.5ZM99.5 59.6154V63.4615H100.5V59.6154H99.5ZM99.5 67.3077V71.1538H100.5V67.3077H99.5ZM99.5 75V78.8461H100.5V75H99.5ZM99.5 82.6923V86.5385H100.5V82.6923H99.5ZM99.5 90.3846V94.2308H100.5V90.3846H99.5ZM99.5 98.0769V100H100.5V98.0769H99.5ZM100 100.5H101.923V99.5H100V100.5ZM105.769 100.5H109.615V99.5H105.769V100.5ZM113.462 100.5H117.308V99.5H113.462V100.5ZM121.154 100.5H125V99.5H121.154V100.5ZM128.846 100.5H132.692V99.5H128.846V100.5ZM136.538 100.5H140.385V99.5H136.538V100.5ZM144.231 100.5H148.077V99.5H144.231V100.5ZM151.923 100.5H155.769V99.5H151.923V100.5ZM159.615 100.5H163.462V99.5H159.615V100.5ZM167.308 100.5H171.154V99.5H167.308V100.5ZM175 100.5H178.846V99.5H175V100.5ZM182.692 100.5H186.538V99.5H182.692V100.5ZM190.385 100.5H194.231V99.5H190.385V100.5ZM198.077 100.5H200V99.5H198.077V100.5ZM100 100H99V101H100V100ZM99 0V1.92308H101V0H99ZM99 5.76923V9.61538H101V5.76923H99ZM99 13.4615V17.3077H101V13.4615H99ZM99 21.1538V25H101V21.1538H99ZM99 28.8462V32.6923H101V28.8462H99ZM99 36.5385V40.3846H101V36.5385H99ZM99 44.2308V48.0769H101V44.2308H99ZM99 51.9231V55.7692H101V51.9231H99ZM99 59.6154V63.4615H101V59.6154H99ZM99 67.3077V71.1538H101V67.3077H99ZM99 75V78.8461H101V75H99ZM99 82.6923V86.5385H101V82.6923H99ZM99 90.3846V94.2308H101V90.3846H99ZM99 98.0769V100H101V98.0769H99ZM100 101H101.923V99H100V101ZM105.769 101H109.615V99H105.769V101ZM113.462 101H117.308V99H113.462V101ZM121.154 101H125V99H121.154V101ZM128.846 101H132.692V99H128.846V101ZM136.538 101H140.385V99H136.538V101ZM144.231 101H148.077V99H144.231V101ZM151.923 101H155.769V99H151.923V101ZM159.615 101H163.462V99H159.615V101ZM167.308 101H171.154V99H167.308V101ZM175 101H178.846V99H175V101ZM182.692 101H186.538V99H182.692V101ZM190.385 101H194.231V99H190.385V101ZM198.077 101H200V99H198.077V101Z" fill="black" fill-opacity="0.48" mask="url(#path-3-inside-2_1_9)"/>
<rect x="51" y="51" width="98" height="98" stroke="black" stroke-opacity="0.48" stroke-width="2" stroke-dasharray="4 4"/>
<mask id="path-6-inside-3_1_9" fill="white">
<path d="M0 100H100V200H0V100Z"/>
</mask>
<path d="M100 100H100.5V99.5H100V100ZM100.5 200V198.077H99.5V200H100.5ZM100.5 194.231V190.385H99.5V194.231H100.5ZM100.5 186.538V182.692H99.5V186.538H100.5ZM100.5 178.846V175H99.5V178.846H100.5ZM100.5 171.154V167.308H99.5V171.154H100.5ZM100.5 163.462V159.615H99.5V163.462H100.5ZM100.5 155.769V151.923H99.5V155.769H100.5ZM100.5 148.077V144.231H99.5V148.077H100.5ZM100.5 140.385V136.538H99.5V140.385H100.5ZM100.5 132.692V128.846H99.5V132.692H100.5ZM100.5 125V121.154H99.5V125H100.5ZM100.5 117.308V113.462H99.5V117.308H100.5ZM100.5 109.615V105.769H99.5V109.615H100.5ZM100.5 101.923V100H99.5V101.923H100.5ZM100 99.5H98.0769V100.5H100V99.5ZM94.2308 99.5H90.3846V100.5H94.2308V99.5ZM86.5385 99.5H82.6923V100.5H86.5385V99.5ZM78.8462 99.5H75V100.5H78.8462V99.5ZM71.1538 99.5H67.3077V100.5H71.1538V99.5ZM63.4615 99.5H59.6154V100.5H63.4615V99.5ZM55.7692 99.5H51.9231V100.5H55.7692V99.5ZM48.0769 99.5H44.2308V100.5H48.0769V99.5ZM40.3846 99.5H36.5385V100.5H40.3846V99.5ZM32.6923 99.5H28.8462V100.5H32.6923V99.5ZM25 99.5H21.1539V100.5H25V99.5ZM17.3077 99.5H13.4615V100.5H17.3077V99.5ZM9.6154 99.5H5.76924V100.5H9.6154V99.5ZM1.92309 99.5H0V100.5H1.92309V99.5ZM100 100H101V99H100V100ZM101 200V198.077H99V200H101ZM101 194.231V190.385H99V194.231H101ZM101 186.538V182.692H99V186.538H101ZM101 178.846V175H99V178.846H101ZM101 171.154V167.308H99V171.154H101ZM101 163.462V159.615H99V163.462H101ZM101 155.769V151.923H99V155.769H101ZM101 148.077V144.231H99V148.077H101ZM101 140.385V136.538H99V140.385H101ZM101 132.692V128.846H99V132.692H101ZM101 125V121.154H99V125H101ZM101 117.308V113.462H99V117.308H101ZM101 109.615V105.769H99V109.615H101ZM101 101.923V100H99V101.923H101ZM100 99H98.0769V101H100V99ZM94.2308 99H90.3846V101H94.2308V99ZM86.5385 99H82.6923V101H86.5385V99ZM78.8462 99H75V101H78.8462V99ZM71.1538 99H67.3077V101H71.1538V99ZM63.4615 99H59.6154V101H63.4615V99ZM55.7692 99H51.9231V101H55.7692V99ZM48.0769 99H44.2308V101H48.0769V99ZM40.3846 99H36.5385V101H40.3846V99ZM32.6923 99H28.8462V101H32.6923V99ZM25 99H21.1539V101H25V99ZM17.3077 99H13.4615V101H17.3077V99ZM9.6154 99H5.76924V101H9.6154V99ZM1.92309 99H0V101H1.92309V99Z" fill="black" fill-opacity="0.48" mask="url(#path-6-inside-3_1_9)"/>
<mask id="path-8-inside-4_1_9" fill="white">
<path d="M100 100H200V200H100V100Z"/>
</mask>
<path d="M100 100V99.5H99.5V100H100ZM99.5 100V101.923H100.5V100H99.5ZM99.5 105.769V109.615H100.5V105.769H99.5ZM99.5 113.462V117.308H100.5V113.462H99.5ZM99.5 121.154V125H100.5V121.154H99.5ZM99.5 128.846V132.692H100.5V128.846H99.5ZM99.5 136.538V140.385H100.5V136.538H99.5ZM99.5 144.231V148.077H100.5V144.231H99.5ZM99.5 151.923V155.769H100.5V151.923H99.5ZM99.5 159.615V163.462H100.5V159.615H99.5ZM99.5 167.308V171.154H100.5V167.308H99.5ZM99.5 175V178.846H100.5V175H99.5ZM99.5 182.692V186.538H100.5V182.692H99.5ZM99.5 190.385V194.231H100.5V190.385H99.5ZM99.5 198.077V200H100.5V198.077H99.5ZM200 99.5H198.077V100.5H200V99.5ZM194.231 99.5H190.385V100.5H194.231V99.5ZM186.538 99.5H182.692V100.5H186.538V99.5ZM178.846 99.5H175V100.5H178.846V99.5ZM171.154 99.5H167.308V100.5H171.154V99.5ZM163.462 99.5H159.615V100.5H163.462V99.5ZM155.769 99.5H151.923V100.5H155.769V99.5ZM148.077 99.5H144.231V100.5H148.077V99.5ZM140.385 99.5H136.538V100.5H140.385V99.5ZM132.692 99.5H128.846V100.5H132.692V99.5ZM125 99.5H121.154V100.5H125V99.5ZM117.308 99.5H113.462V100.5H117.308V99.5ZM109.615 99.5H105.769V100.5H109.615V99.5ZM101.923 99.5H100V100.5H101.923V99.5ZM100 100V99H99V100H100ZM99 100V101.923H101V100H99ZM99 105.769V109.615H101V105.769H99ZM99 113.462V117.308H101V113.462H99ZM99 121.154V125H101V121.154H99ZM99 128.846V132.692H101V128.846H99ZM99 136.538V140.385H101V136.538H99ZM99 144.231V148.077H101V144.231H99ZM99 151.923V155.769H101V151.923H99ZM99 159.615V163.462H101V159.615H99ZM99 167.308V171.154H101V167.308H99ZM99 175V178.846H101V175H99ZM99 182.692V186.538H101V182.692H99ZM99 190.385V194.231H101V190.385H99ZM99 198.077V200H101V198.077H99ZM200 99H198.077V101H200V99ZM194.231 99H190.385V101H194.231V99ZM186.538 99H182.692V101H186.538V99ZM178.846 99H175V101H178.846V99ZM171.154 99H167.308V101H171.154V99ZM163.462 99H159.615V101H163.462V99ZM155.769 99H151.923V101H155.769V99ZM148.077 99H144.231V101H148.077V99ZM140.385 99H136.538V101H140.385V99ZM132.692 99H128.846V101H132.692V99ZM125 99H121.154V101H125V99ZM117.308 99H113.462V101H117.308V99ZM109.615 99H105.769V101H109.615V99ZM101.923 99H100V101H101.923V99Z" fill="black" fill-opacity="0.48" mask="url(#path-8-inside-4_1_9)"/>
</svg>
